<?xml version="1.0" encoding="utf-8"?>
<svg version="1.1" xmlns:xlink="http://www.w3.org/1999/xlink" width="50px" height="50px" xmlns="http://www.w3.org/2000/svg">
  <g transform="matrix(1 0 0 1 -1860 -10 )">
    <path d="M 49.4698660714286 23.7444196428571  C 49.8232886904762 24.0978422619048  50 24.516369047619  50 25  C 50 25.483630952381  49.8232886904762 25.9021577380952  49.4698660714286 26.2555803571429  L 42.3270089285714 33.3984375  C 41.9735863095238 33.7518601190476  41.5550595238095 33.9285714285714  41.0714285714286 33.9285714285714  C 40.5877976190476 33.9285714285714  40.1692708333333 33.7518601190476  39.8158482142857 33.3984375  C 39.4624255952381 33.0450148809524  39.2857142857143 32.6264880952381  39.2857142857143 32.1428571428571  L 39.2857142857143 28  L 28 28  L 28 39.2857142857143  L 32.1428571428571 39.2857142857143  C 32.6264880952381 39.2857142857143  33.0450148809524 39.4624255952381  33.3984375 39.8158482142857  C 33.7518601190476 40.1692708333333  33.9285714285714 40.5877976190476  33.9285714285714 41.0714285714286  C 33.9285714285714 41.5550595238095  33.7518601190476 41.9735863095238  33.3984375 42.3270089285714  L 26.2555803571429 49.4698660714286  C 25.9021577380952 49.8232886904762  25.483630952381 50  25 50  C 24.5163690476191 50  24.0978422619048 49.8232886904762  23.7444196428571 49.4698660714286  L 16.6015625 42.3270089285714  C 16.2481398809524 41.9735863095238  16.0714285714286 41.5550595238095  16.0714285714286 41.0714285714286  C 16.0714285714286 40.5877976190476  16.2481398809524 40.1692708333333  16.6015625 39.8158482142857  C 16.9549851190476 39.4624255952381  17.3735119047619 39.2857142857143  17.8571428571429 39.2857142857143  L 22 39.2857142857143  L 22 28  L 10.7142857142857 28  L 10.7142857142857 32.1428571428571  C 10.7142857142857 32.6264880952381  10.5375744047619 33.0450148809524  10.1841517857143 33.3984375  C 9.83072916666667 33.7518601190476  9.41220238095238 33.9285714285714  8.92857142857143 33.9285714285714  C 8.44494047619048 33.9285714285714  8.02641369047619 33.7518601190476  7.67299107142857 33.3984375  L 0.530133928571429 26.2555803571429  C 0.17671130952381 25.9021577380952  0 25.483630952381  0 25  C 0 24.516369047619  0.17671130952381 24.0978422619048  0.530133928571429 23.7444196428571  L 7.67299107142857 16.6015625  C 8.02641369047619 16.2481398809524  8.44494047619048 16.0714285714286  8.92857142857143 16.0714285714286  C 9.41220238095238 16.0714285714286  9.83072916666667 16.2481398809524  10.1841517857143 16.6015625  C 10.5375744047619 16.9549851190476  10.7142857142857 17.3735119047619  10.7142857142857 17.8571428571429  L 10.7142857142857 22  L 22 22  L 22 10.7142857142857  L 17.8571428571429 10.7142857142857  C 17.3735119047619 10.7142857142857  16.9549851190476 10.5375744047619  16.6015625 10.1841517857143  C 16.2481398809524 9.83072916666666  16.0714285714286 9.41220238095238  16.0714285714286 8.92857142857143  C 16.0714285714286 8.44494047619047  16.2481398809524 8.02641369047619  16.6015625 7.67299107142857  L 23.7444196428571 0.53013392857143  C 24.0978422619048 0.176711309523814  24.5163690476191 0  25 0  C 25.483630952381 0  25.9021577380952 0.176711309523814  26.2555803571429 0.53013392857143  L 33.3984375 7.67299107142857  C 33.7518601190476 8.02641369047619  33.9285714285714 8.44494047619047  33.9285714285714 8.92857142857143  C 33.9285714285714 9.41220238095238  33.7518601190476 9.83072916666666  33.3984375 10.1841517857143  C 33.0450148809524 10.5375744047619  32.6264880952381 10.7142857142857  32.1428571428571 10.7142857142857  L 28 10.7142857142857  L 28 22  L 39.2857142857143 22  L 39.2857142857143 17.8571428571429  C 39.2857142857143 17.3735119047619  39.4624255952381 16.9549851190476  39.8158482142857 16.6015625  C 40.1692708333333 16.2481398809524  40.5877976190476 16.0714285714286  41.0714285714286 16.0714285714286  C 41.5550595238095 16.0714285714286  41.9735863095238 16.2481398809524  42.3270089285714 16.6015625  L 49.4698660714286 23.7444196428571  Z " fill-rule="nonzero" fill="#000000" stroke="none" transform="matrix(1 0 0 1 1860 10 )" />
  </g>
</svg>