<?xml version="1.0" encoding="utf-8"?>
<svg version="1.1" xmlns:xlink="http://www.w3.org/1999/xlink" width="358px" height="395px" xmlns="http://www.w3.org/2000/svg">
  <g transform="matrix(1 0 0 1 -728 -1454 )">
    <path d="M 95.4666666666667 141.071428571429  C 95.4666666666667 161.497395833333  100.501041666667 180.306919642857  110.569791666667 197.5  C 90.4322916666667 198.23474702381  73.9618055555556 207.639508928571  61.1583333333333 225  L 36.1729166666667 225  C 25.9798611111111 225.714285714286  17.4027777777778 222.738560267857  10.4416666666667 216.787109375  C 3.48055555555556 210.835658482143  0 202.12890625  0 190.666852678571  C 0 138.793712797619  7.70694444444444 112.857142857143  23.1208333333333 112.857142857143  C 23.8666666666667 112.857142857143  26.5703125 114.400111607143  31.2317708333333 117.486049107143  C 35.8932291666667 120.571986607143  41.953125 123.694661458333  49.4114583333333 126.854073660714  C 56.8697916666667 130.013485863095  64.2659722222222 131.593191964286  71.6 131.593191964286  C 79.9284722222222 131.593191964286  88.1947916666667 129.903273809524  96.3989583333333 126.5234375  C 95.7774305555556 131.96056547619  95.4666666666667 136.809895833333  95.4666666666667 141.071428571429  Z M 309.6140625 315.096261160714  C 310.049131944444 322.51720610119  310.266666666667 330.121837797619  310.266666666667 337.91015625  C 310.266666666667 355.544084821429  305.729513888889 369.467540922619  296.655208333333 379.680524553571  C 287.580902777778 389.893508184524  275.523263888889 395  260.482291666667 395  L 97.5177083333333 395  C 82.4767361111111 395  70.4190972222222 389.893508184524  61.3447916666667 379.680524553571  C 52.2704861111111 369.467540922619  47.7333333333333 355.544084821429  47.7333333333333 337.91015625  C 47.7333333333333 330.121837797619  47.9508680555556 322.51720610119  48.3859375 315.096261160714  C 48.8210069444445 307.675316220238  49.6911458333333 299.666573660714  50.9963541666667 291.070033482143  C 52.3015625 282.473493303571  53.9486111111111 274.501488095238  55.9375 267.154017857143  C 57.9263888888889 259.806547619048  60.5989583333333 252.642764136905  63.9552083333333 245.662667410714  C 67.3114583333333 238.682570684524  71.1649305555556 232.731119791667  75.515625 227.808314732143  C 79.8663194444444 222.885509672619  85.1803819444444 218.954613095238  91.4578125 216.015625  C 97.7352430555556 213.076636904762  104.665277777778 211.607142857143  112.247916666667 211.607142857143  C 113.490972222222 211.607142857143  116.163541666667 213.186848958333  120.265625 216.346261160714  C 124.367708333333 219.505673363095  128.904861111111 223.032459077381  133.877083333333 226.926618303571  C 138.849305555556 230.820777529762  145.499652777778 234.347563244048  153.828125 237.506975446429  C 162.156597222222 240.66638764881  170.547222222222 242.24609375  179 242.24609375  C 187.452777777778 242.24609375  195.843402777778 240.66638764881  204.171875 237.506975446429  C 212.500347222222 234.347563244048  219.150694444444 230.820777529762  224.122916666667 226.926618303571  C 229.095138888889 223.032459077381  233.632291666667 219.505673363095  237.734375 216.346261160714  C 241.836458333333 213.186848958333  244.509027777778 211.607142857143  245.752083333333 211.607142857143  C 253.334722222222 211.607142857143  260.264756944445 213.076636904762  266.5421875 216.015625  C 272.819618055556 218.954613095238  278.133680555556 222.885509672619  282.484375 227.808314732143  C 286.835069444445 232.731119791667  290.688541666667 238.682570684524  294.044791666667 245.662667410714  C 297.401041666667 252.642764136905  300.073611111111 259.806547619048  302.0625 267.154017857143  C 304.051388888889 274.501488095238  305.6984375 282.473493303571  307.003645833333 291.070033482143  C 308.308854166667 299.666573660714  309.178993055556 307.675316220238  309.6140625 315.096261160714  Z M 105.348958333333 16.5318080357143  C 114.671875 27.5530133928571  119.333333333333 40.8519345238095  119.333333333333 56.4285714285714  C 119.333333333333 72.0052083333333  114.671875 85.3041294642857  105.348958333333 96.3253348214286  C 96.0260416666667 107.346540178571  84.7763888888889 112.857142857143  71.6 112.857142857143  C 58.4236111111111 112.857142857143  47.1739583333333 107.346540178571  37.8510416666667 96.3253348214286  C 28.528125 85.3041294642857  23.8666666666667 72.0052083333333  23.8666666666667 56.4285714285714  C 23.8666666666667 40.8519345238095  28.528125 27.5530133928571  37.8510416666667 16.5318080357143  C 47.1739583333333 5.51060267857145  58.4236111111111 0  71.6 0  C 84.7763888888889 0  96.0260416666667 5.51060267857145  105.348958333333 16.5318080357143  Z M 229.6234375 81.2262834821428  C 243.6078125 97.7580915178572  250.6 117.706473214286  250.6 141.071428571429  C 250.6 164.436383928571  243.6078125 184.384765625  229.6234375 200.916573660714  C 215.6390625 217.448381696429  198.764583333333 225.714285714286  179 225.714285714286  C 159.235416666667 225.714285714286  142.3609375 217.448381696429  128.3765625 200.916573660714  C 114.3921875 184.384765625  107.4 164.436383928571  107.4 141.071428571429  C 107.4 117.706473214286  114.3921875 97.7580915178572  128.3765625 81.2262834821428  C 142.3609375 64.6944754464286  159.235416666667 56.4285714285714  179 56.4285714285714  C 198.764583333333 56.4285714285714  215.6390625 64.6944754464286  229.6234375 81.2262834821428  Z M 334.879166666667 112.857142857143  C 350.293055555556 112.857142857143  358 138.793712797619  358 190.666852678571  C 358 202.12890625  354.519444444444 210.835658482143  347.558333333333 216.787109375  C 340.597222222222 222.738560267857  332.020138888889 225.714285714286  321.827083333333 225  L 296.841666666667 225  C 284.038194444445 207.639508928571  267.567708333333 198.23474702381  247.430208333333 197.5  C 257.498958333333 180.306919642857  262.533333333333 161.497395833333  262.533333333333 141.071428571429  C 262.533333333333 136.809895833333  262.222569444444 131.96056547619  261.601041666667 126.5234375  C 269.805208333333 129.903273809524  278.071527777778 131.593191964286  286.4 131.593191964286  C 293.734027777778 131.593191964286  301.130208333333 130.013485863095  308.588541666667 126.854073660714  C 316.046875 123.694661458333  322.106770833333 120.571986607143  326.768229166667 117.486049107143  C 331.4296875 114.400111607143  334.133333333333 112.857142857143  334.879166666667 112.857142857143  Z M 320.148958333333 16.5318080357143  C 329.471875 27.5530133928571  334.133333333333 40.8519345238095  334.133333333333 56.4285714285714  C 334.133333333333 72.0052083333333  329.471875 85.3041294642857  320.148958333333 96.3253348214286  C 310.826041666667 107.346540178571  299.576388888889 112.857142857143  286.4 112.857142857143  C 273.223611111111 112.857142857143  261.973958333333 107.346540178571  252.651041666667 96.3253348214286  C 243.328125 85.3041294642857  238.666666666667 72.0052083333333  238.666666666667 56.4285714285714  C 238.666666666667 40.8519345238095  243.328125 27.5530133928571  252.651041666667 16.5318080357143  C 261.973958333333 5.51060267857145  273.223611111111 0  286.4 0  C 299.576388888889 0  310.826041666667 5.51060267857145  320.148958333333 16.5318080357143  Z " fill-rule="nonzero" fill="#000000" stroke="none" transform="matrix(1 0 0 1 728 1454 )" />
  </g>
</svg>