<?xml version="1.0" encoding="utf-8"?>
<svg version="1.1" xmlns:xlink="http://www.w3.org/1999/xlink" width="321px" height="365px" xmlns="http://www.w3.org/2000/svg">
  <g transform="matrix(1 0 0 1 -1293 -1486 )">
    <path d="M 304.622448979592 72.9524739583333  C 309.503601440576 75.3287760416667  313.292917166867 78.7348090277777  315.990396158463 83.1705729166667  C 321.128451380552 92.2005208333333  322.284513805522 102.418619791667  319.458583433373 113.824869791667  L 266.472388955582 329.117838541667  C 264.03181272509 339.256727430556  259.118547418968 347.771809895833  251.732593037215 354.6630859375  C 244.346638655462 361.554361979167  236.478991596639 365  228.129651860744 365  L 50.2887154861945 365  C 40.3979591836735 365  30.8604441776711 360.762261284722  21.6761704681873 352.286783854167  C 12.4918967587035 343.811306423611  6.10144057623049 333.395182291667  2.50480192076831 321.038411458333  C -0.578031212484994 310.424262152778  -0.706482593037215 300.364583333333  2.11944777911164 290.859375  C 2.11944777911164 290.225694444444  2.31212484993998 288.087022569444  2.69747899159664 284.443359375  C 3.0828331332533 280.799696180556  3.33973589435774 277.868923611111  3.46818727490996 275.651041666667  C 3.59663865546219 274.383680555556  3.40396158463385 272.6806640625  2.89015606242497 270.5419921875  C 2.37635054021609 268.4033203125  2.18367346938776 266.858723958333  2.31212484993998 265.908203125  C 2.56902761104442 264.165581597222  3.0828331332533 262.502170138889  3.85354141656663 260.91796875  C 4.62424969987995 259.333767361111  5.68397358943577 257.472330729167  7.03271308523409 255.333658854167  C 8.38145258103241 253.194986979167  9.44117647058824 251.333550347222  10.2118847539016 249.749348958333  C 13.1662665066026 243.729383680555  16.0564225690276 236.481662326389  18.8823529411765 228.006184895833  C 21.7082833133253 219.530707465278  23.6350540216086 212.282986111111  24.6626650660264 206.263020833333  C 25.0480192076831 204.678819444444  25.0801320528211 202.302517361111  24.7590036014406 199.134114583333  C 24.43787515006 195.965711805556  24.405762304922 193.747829861111  24.6626650660264 192.48046875  C 25.0480192076831 190.737847222222  26.139855942377 188.519965277778  27.938175270108 185.826822916667  C 29.7364945978391 183.133680555556  30.828331332533 181.311848958333  31.2136854741897 180.361328125  C 33.9111644657863 174.658203125  36.608643457383 167.370876736111  39.3061224489796 158.499348958333  C 42.0036014405762 149.627821180556  43.609243697479 142.498914930556  44.1230492196879 137.112630208333  C 44.2515006002401 135.686848958333  44.0909363745498 133.152126736111  43.641356542617 129.508463541667  C 43.1917767106843 125.864800347222  43.2238895558223 123.646918402778  43.7376950780312 122.854817708333  C 44.2515006002401 120.795355902778  45.6644657863145 118.379448784722  47.9765906362545 115.607096354167  C 50.2887154861945 112.834743923611  51.7016806722689 111.052517361111  52.2154861944778 110.260416666667  C 54.65606242497 106.141493055556  57.3856542617047 99.4482421875  60.4042617046819 90.1806640625  C 63.4228691476591 80.9130859375  65.1890756302521 73.2693142361111  65.702881152461 67.2493489583333  C 65.8313325330132 65.9819878472222  65.6386554621849 63.9621310763889  65.124849939976 61.1897786458333  C 64.6110444177671 58.4174262152777  64.4825930372149 56.318359375  64.7394957983193 54.892578125  C 64.9963985594238 53.6252170138889  65.5744297719088 52.1994357638889  66.4735894357743 50.615234375  C 67.3727490996399 49.0310329861111  68.5288115246099 47.2092013888889  69.9417767106843 45.1497395833333  C 71.3547418967587 43.0902777777777  72.4465786314526 41.4268663194444  73.2172869147659 40.1595052083333  C 74.2448979591837 38.2584635416667  75.3046218487395 35.8425564236111  76.3964585834334 32.9117838541667  C 77.4882953181273 29.9810112847222  78.4516806722689 27.2086588541667  79.2866146458583 24.5947265625  C 80.1215486194478 21.9807942708333  81.1491596638656 19.1292317708333  82.3694477791116 16.0400390625  C 83.5897358943578 12.9508463541667  84.8421368547419 10.4161241319444  86.1266506602641 8.43587239583332  C 87.4111644657863 6.45562065972217  89.1131452581032 4.59418402777775  91.2325930372149 2.8515625  C 93.3520408163266 1.10894097222217  95.6641656662665 0.198025173611107  98.1689675870348 0.11881510416668  C 100.673769507803 0.0396050347221727  103.724489795918 0.47526041666668  107.321128451381 1.42578125  L 107.128451380552 2.138671875  C 112.009603841537 0.712890625  115.285114045618 0  116.954981992797 0  L 263.582232893157 0  C 273.087635054022 0  280.409363745498 4.43576388888885  285.547418967587 13.3072916666667  C 290.685474189676 22.1788194444444  291.841536614646 32.4761284722222  289.015606242497 44.19921875  L 236.222088835534 259.4921875  C 231.597839135654 278.344184027778  227.005702280912 290.5029296875  222.445678271309 295.968424479167  C 217.885654261705 301.433919270833  209.632653061224 304.166666666667  197.686674669868 304  L 30.250300120048 304  C 26.7821128451381 304.166666666667  24.3415366146459 305.354817708333  22.9285714285714 307.731119791667  C 21.515606242497 310.265842013889  21.4513805522209 313.671875  22.7358943577431 317.94921875  C 25.8187274909964 329.038628472222  35.0672268907563 334.583333333333  50.4813925570228 334  L 228.322328931573 334  C 232.047418967587 334.583333333333  235.644057623049 333.355577256944  239.112244897959 330.900065104167  C 242.580432172869 328.444552951389  244.828331332533 325.157335069444  245.855942376951 321.038411458333  L 303.65906362545 86.4973958333333  C 304.558223289316 83.0121527777777  304.879351740696 78.4971788194444  304.622448979592 72.9524739583333  Z M 115.028211284514 68.4375  L 110.981992797119 83.6458333333333  C 110.46818727491 85.7052951388889  110.596638655462 87.4875217013889  111.367346938776 88.9925130208333  C 112.138055222089 90.4975043402777  113.422569027611 91.25  115.220888355342 92  L 232.368547418968 92  C 234.038415366146 91.25  235.676170468187 90.4975043402777  237.28181272509 88.9925130208333  C 238.887454981993 87.4875217013889  239.947178871549 85.7052951388889  240.460984393758 83.6458333333333  L 244.507202881152 68.4375  C 245.021008403361 66.3780381944444  244.892557022809 64.5958116319444  244.121848739496 63.0908203125  C 243.351140456182 61.5858289930555  242.06662665066 60.8333333333333  240.268307322929 61  L 123.120648259304 61  C 121.450780312125 60.8333333333333  119.813025210084 61.5858289930555  118.207382953181 63.0908203125  C 116.601740696279 64.5958116319444  115.542016806723 66.3780381944444  115.028211284514 68.4375  Z M 99.0360144057623 129.270833333333  L 94.9897959183673 144.479166666667  C 94.4759903961585 146.538628472222  94.6044417767107 148.320855034722  95.375150060024 149.825846354167  C 96.1458583433373 151.330837673611  97.4303721488595 152.083333333333  99.2286914765906 152  L 216.376350540216 152  C 218.046218487395 152.083333333333  219.683973589436 151.330837673611  221.289615846339 149.825846354167  C 222.895258103241 148.320855034722  223.954981992797 146.538628472222  224.468787515006 144.479166666667  L 228.515006002401 129.270833333333  C 229.02881152461 127.211371527778  228.900360144058 125.429144965278  228.129651860744 123.924153645833  C 227.358943577431 122.419162326389  226.074429771909 121.666666666667  224.276110444178 122  L 107.128451380552 122  C 105.458583433373 121.666666666667  103.820828331333 122.419162326389  102.21518607443 123.924153645833  C 100.609543817527 125.429144965278  99.5498199279712 127.211371527778  99.0360144057623 129.270833333333  Z " fill-rule="nonzero" fill="#000000" stroke="none" transform="matrix(1 0 0 1 1293 1486 )" />
  </g>
</svg>