<?xml version="1.0" encoding="utf-8"?>
<svg version="1.1" xmlns:xlink="http://www.w3.org/1999/xlink" width="373px" height="341px" xmlns="http://www.w3.org/2000/svg">
  <g transform="matrix(1 0 0 1 -164 -1497 )">
    <path d="M 159.496354166667 205.452015900057  C 169.209895833333 195.770017035775  174.066666666667 184.087071739542  174.066666666667 170.403180011357  C 174.066666666667 156.719288283172  169.209895833333 145.036342986939  159.496354166667 135.354344122658  C 149.7828125 125.672345258376  138.061805555556 120.831345826235  124.333333333333 120.831345826235  C 110.604861111111 120.831345826235  98.8838541666667 125.672345258376  89.1703125 135.354344122658  C 79.4567708333333 145.036342986939  74.6 156.719288283172  74.6 170.403180011357  C 74.6 184.087071739542  79.4567708333333 195.770017035775  89.1703125 205.452015900057  C 98.8838541666667 215.134014764338  110.604861111111 219.975014196479  124.333333333333 219.975014196479  C 138.061805555556 219.975014196479  149.7828125 215.134014764338  159.496354166667 205.452015900057  Z M 315.981510416667 287.071266325951  C 320.83828125 282.23026689381  323.266666666667 276.388794245694  323.266666666667 269.546848381601  C 323.266666666667 262.833995835699  320.805902777778 257.02479651713  315.884375 252.119250425894  C 310.962847222222 247.213704334658  305.134722222222 244.76093128904  298.4 244.76093128904  C 291.665277777778 244.76093128904  285.837152777778 247.213704334658  280.915625 252.119250425894  C 275.994097222222 257.02479651713  273.533333333333 262.833995835699  273.533333333333 269.546848381601  C 273.533333333333 276.388794245694  275.96171875 282.23026689381  280.818489583333 287.071266325951  C 285.675260416667 291.912265758092  291.535763888889 294.332765474162  298.4 294.332765474162  C 305.264236111111 294.332765474162  311.124739583333 291.912265758092  315.981510416667 287.071266325951  Z M 315.981510416667 88.7839295854628  C 320.83828125 83.942930153322  323.266666666667 78.1014575052054  323.266666666667 71.259511641113  C 323.266666666667 64.546659095211  320.805902777778 58.737459776642  315.884375 53.831913685406  C 310.962847222222 48.92636759417  305.134722222222 46.473594548552  298.4 46.473594548552  C 291.665277777778 46.473594548552  285.837152777778 48.92636759417  280.915625 53.831913685406  C 275.994097222222 58.737459776642  273.533333333333 64.546659095211  273.533333333333 71.259511641113  C 273.533333333333 78.1014575052054  275.96171875 83.942930153322  280.818489583333 88.7839295854628  C 285.675260416667 93.6249290176036  291.535763888889 96.045428733674  298.4 96.045428733674  C 305.264236111111 96.045428733674  311.124739583333 93.6249290176036  315.981510416667 88.7839295854628  Z M 247.306770833333 149.005962521295  C 248.213368055556 150.103255725913  248.666666666667 151.36191557827  248 152.781942078365  L 248 188.605337876207  C 248.666666666667 189.896271058111  248.213368055556 191.154930910467  247.306770833333 192.381317433277  C 246.400173611111 193.607703956086  245.3640625 194.285443876585  244.1984375 194.414537194776  L 214.086458333333 199.061896649631  C 212.661805555556 203.580162786296  210.589583333333 208.485708877532  207.869791666667 213.778534923339  C 212.273263888889 219.975014196479  218.101388888889 227.397879992429  225.354166666667 236.047132311187  C 226.260763888889 237.467158811281  226.7140625 238.758091993186  226.7140625 239.919931856899  C 226.7140625 241.469051675185  226.260763888889 242.695438197994  225.354166666667 243.599091425327  C 222.375347222222 247.471890971039  217.032899305556 253.248816960061  209.326822916667 260.929869392391  C 201.620746527778 268.610921824721  196.537326388889 272.451448040886  194.0765625 272.451448040886  C 192.651909722222 272.451448040886  191.292013888889 271.999621427219  189.996875 271.095968199886  L 167.655729166667 253.668370244179  C 162.863715277778 256.121143289797  157.877430555556 258.122089721749  152.696875 259.671209540034  C 151.272222222222 273.6132879046  149.7828125 283.618020064357  148.228645833333 289.685406019307  C 147.322048611111 292.783645655877  145.379340277778 294.332765474162  142.400520833333 294  L 106.266145833333 294  C 104.841493055556 294.332765474162  103.546354166667 293.848665530948  102.380729166667 292.88046564452  C 101.215104166667 291.912265758092  100.567534722222 290.782699223926  100.438020833333 289.491766042022  L 95.9697916666667 259.86484951732  C 91.5663194444444 258.573916335415  86.7095486111111 256.572969903464  81.3994791666667 253.862010221465  L 58.4755208333333 271.095968199886  C 57.5689236111111 271.999621427219  56.2737847222222 272.451448040886  54.5901041666667 272.451448040886  C 53.1654513888889 272.451448040886  51.8055555555556 271.935074768124  50.5104166666667 270.902328222601  C 31.8604166666667 253.732916903275  22.5354166666667 243.405451448041  22.5354166666667 239.919931856899  C 22.5354166666667 238.758091993186  22.9887152777778 237.531705470377  23.8953125 236.240772288472  C 25.1904513888889 234.433465833807  27.8454861111111 231.01249290176  31.8604166666667 225.977853492334  C 35.8753472222222 220.943214082907  38.9189236111111 217.0058678781  40.9911458333333 214.16581487791  C 38.0123263888889 208.485708877532  35.7458333333333 203.192882831724  34.1916666666667 198.287336740488  L 4.6625 193.639977285633  C 3.36736111111111 193.510883967443  2.26649305555556 192.897690706038  1.35989583333333 191.80039750142  C 0.453298611111111 190.703104296801  0 189.444444444444  0 188.02441794435  L 0 152.201022146508  C 0 150.910088964603  0.453298611111111 149.651429112247  1.35989583333333 148.425042589438  C 2.26649305555556 147.198656066629  3.30260416666667 146.520916146129  4.46822916666667 146.391822827939  L 34.5802083333333 141.744463373083  C 36.0048611111111 137.226197236419  38.0770833333333 132.320651145183  40.796875 127.027825099375  C 36.3934027777778 120.831345826235  30.5652777777778 113.408480030286  23.3125 104.759227711528  C 22.4059027777778 103.339201211433  21.9526041666667 102.048268029529  21.9526041666667 100.886428165815  C 21.9526041666667 99.3373083475298  22.4059027777778 98.0463751656256  23.3125 97.0136286201022  C 26.1618055555556 93.1408290743895  31.471875 87.3961764149157  39.2427083333333 79.7796706416809  C 47.0135416666667 72.1631648684459  52.1293402777778 68.3549119818285  54.5901041666667 68.3549119818285  C 56.0147569444445 68.3549119818285  57.3746527777778 68.806738595495  58.6697916666667 69.710391822828  L 81.0109375 87.1379897785349  C 85.4144097222222 84.8143100511073  90.4006944444445 82.7488169600606  95.9697916666667 80.9415105053946  C 97.3944444444444 66.9994321408291  98.8838541666667 57.0592466401665  100.438020833333 51.1209540034072  C 101.344618055556 48.022714366837  103.287326388889 46.473594548552  106.266145833333 47  L 142.400520833333 47  C 143.825173611111 46.473594548552  145.1203125 46.9576944917661  146.2859375 47.9258943781942  C 147.4515625 48.8940942646224  148.099131944444 50.0236607987885  148.228645833333 51.3145939806928  L 152.696875 80.9415105053946  C 157.100347222222 82.2324436872989  161.957118055556 84.2333901192504  167.2671875 86.9443498012493  L 190.191145833333 69.710391822828  C 191.227256944444 68.806738595495  192.522395833333 68.3549119818285  194.0765625 68.3549119818285  C 195.501215277778 68.3549119818285  196.861111111111 68.8712852545902  198.15625 69.9040318001136  C 216.80625 87.0734431194397  226.13125 97.4009085746735  226.13125 100.886428165815  C 226.13125 101.919174711338  225.677951388889 103.145561234147  224.771354166667 104.565587734242  C 223.2171875 106.631080825289  220.497395833333 110.11660041643  216.611979166667 115.022146507666  C 212.7265625 119.927692598902  209.8125 123.800492144615  207.869791666667 126.640545144804  C 210.848611111111 132.837024417944  213.050347222222 138.129850463752  214.475 142.519023282226  L 244.004166666667 146.972742759796  C 245.299305555556 147.230929396176  246.400173611111 147.908669316676  247.306770833333 149.005962521295  Z M 344.053645833333 249.989210675752  C 363.351215277778 251.925610448609  373 253.92655688056  373 255.992049971607  L 373 283.101646791596  C 373 285.167139882642  363.351215277778 287.168086314594  344.053645833333 289.10448608745  C 342.499479166667 292.590005678592  340.556770833333 295.946431951543  338.225520833333 299.173764906303  C 344.830729166667 313.761309861821  348.133333333333 322.66874881696  348.133333333333 325.896081771721  C 348.133333333333 326.412455044482  347.874305555556 326.864281658149  347.35625 327.25156161272  C 331.555555555556 336.41718720424  323.525694444444 341  323.266666666667 341  C 322.230555555556 341  319.251736111111 337.966307022525  314.330208333333 331.898921067575  C 309.408680555556 325.831535112625  306.041319444444 321.442362294151  304.228125 318.731402612152  C 301.637847222222 318.989589248533  299.695138888889 319.118682566723  298.4 319.118682566723  C 297.104861111111 319.118682566723  295.162152777778 318.989589248533  292.571875 318.731402612152  C 290.758680555556 321.442362294151  287.391319444444 325.831535112625  282.469791666667 331.898921067575  C 277.548263888889 337.966307022525  274.569444444444 341  273.533333333333 341  C 273.274305555556 341  265.244444444444 336.41718720424  249.44375 327.25156161272  C 248.925694444444 326.864281658149  248.666666666667 326.412455044482  248.666666666667 325.896081771721  C 248.666666666667 322.66874881696  251.969270833333 313.761309861821  258.574479166667 299.173764906303  C 256.243229166667 295.946431951543  254.300520833333 292.590005678592  252.746354166667 289.10448608745  C 233.448784722222 287.168086314594  223.8 285.167139882642  223 283.101646791596  L 223 255.992049971607  C 223.8 253.92655688056  233.448784722222 251.925610448609  252.746354166667 249.989210675752  C 254.430034722222 246.24550444823  256.372743055556 242.889078175279  258.574479166667 239.919931856899  C 251.969270833333 225.332386901382  248.666666666667 216.424947946243  248.666666666667 213.197614991482  C 248.666666666667 212.68124171872  248.925694444444 212.229415105054  249.44375 211.842135150483  C 249.961805555556 211.583948514102  252.228298611111 210.293015332198  256.243229166667 207.96933560477  C 260.258159722222 205.645655877342  264.078819444444 203.451069468105  267.705208333333 201.385576377058  C 271.331597222222 199.320083286012  273.274305555556 198.287336740488  273.533333333333 198.287336740488  C 274.569444444444 198.287336740488  277.548263888889 201.288756388416  282.469791666667 207.29159568427  C 287.391319444444 213.294434980125  290.758680555556 217.651334469052  292.571875 220.362294151051  C 295.162152777778 220.10410751467  297.104861111111 219.975014196479  298.4 219.975014196479  C 299.695138888889 219.975014196479  301.637847222222 220.10410751467  304.228125 220.362294151051  C 310.833333333333 211.196668559531  316.790972222222 203.967442740867  322.101041666667 198.67461669506  L 323.266666666667 198.287336740488  C 323.784722222222 198.287336740488  331.814583333333 202.805602877153  347.35625 211.842135150483  C 347.874305555556 212.229415105054  348.133333333333 212.68124171872  348.133333333333 213.197614991482  C 348.133333333333 216.424947946243  344.830729166667 225.332386901382  338.225520833333 239.919931856899  C 340.427256944444 242.889078175279  342.369965277778 246.24550444823  344.053645833333 249.989210675752  Z M 344.053645833333 51.7018739352641  C 363.351215277778 53.6382737081204  373 55.6392201400719  373 57.7047132311187  L 373 84.8143100511073  C 373 86.8798031421541  363.351215277778 88.8807495741056  344.053645833333 90.817149346962  C 342.499479166667 94.3026689381034  340.556770833333 97.6590952110543  338.225520833333 100.886428165815  C 344.830729166667 115.473973121333  348.133333333333 124.381412076472  348.133333333333 127.608745031232  C 348.133333333333 128.125118303994  347.874305555556 128.57694491766  347.35625 128.964224872232  C 331.555555555556 138.129850463752  323.525694444444 142.712663259512  323.266666666667 142.712663259512  C 322.230555555556 142.712663259512  319.251736111111 139.678970282037  314.330208333333 133.611584327087  C 309.408680555556 127.544198372137  306.041319444444 123.155025553663  304.228125 120.444065871664  C 301.637847222222 120.702252508045  299.695138888889 120.831345826235  298.4 120.831345826235  C 297.104861111111 120.831345826235  295.162152777778 120.702252508045  292.571875 120.444065871664  C 290.758680555556 123.155025553663  287.391319444444 127.544198372137  282.469791666667 133.611584327087  C 277.548263888889 139.678970282037  274.569444444444 142.712663259512  273.533333333333 142.712663259512  C 273.274305555556 142.712663259512  265.244444444444 138.129850463752  249.44375 128.964224872232  C 248.925694444444 128.57694491766  248.666666666667 128.125118303994  248.666666666667 127.608745031232  C 248.666666666667 124.381412076472  251.969270833333 115.473973121333  258.574479166667 100.886428165815  C 256.243229166667 97.6590952110543  254.300520833333 94.3026689381034  252.746354166667 90.817149346962  C 233.448784722222 88.8807495741056  223.8 86.8798031421541  223 84.8143100511073  L 223 57.7047132311187  C 223.8 55.6392201400719  233.448784722222 53.6382737081204  252.746354166667 51.7018739352641  C 254.430034722222 47.9581677077418  256.372743055556 44.6017414347908  258.574479166667 41.6325951164111  C 251.969270833333 27.0450501608934  248.666666666667 18.1376112057543  248.666666666667 14.9102782509938  C 248.666666666667 14.3939049782321  248.925694444444 13.9420783645656  249.44375 13.5547984099943  C 249.961805555556 13.2966117736134  252.228298611111 12.0056785917093  256.243229166667 9.68199886428167  C 260.258159722222 7.35831913685407  264.078819444444 5.16373272761684  267.705208333333 3.09823963657013  C 271.331597222222 1.03274654552335  273.274305555556 0  273.533333333333 0  C 274.569444444444 0  277.548263888889 3.0014196479273  282.469791666667 9.00425894378193  C 287.391319444444 15.0070982396366  290.758680555556 19.3639977285633  292.571875 22.0749574105622  C 295.162152777778 21.8167707741813  297.104861111111 21.6876774559909  298.4 21.6876774559909  C 299.695138888889 21.6876774559909  301.637847222222 21.8167707741813  304.228125 22.0749574105622  C 310.833333333333 12.9093318190422  316.790972222222 5.68010600037855  322.101041666667 0.387279954571267  L 323.266666666667 0  C 323.784722222222 0  331.814583333333 4.51826613666475  347.35625 13.5547984099943  C 347.874305555556 13.9420783645656  348.133333333333 14.3939049782321  348.133333333333 14.9102782509938  C 348.133333333333 18.1376112057543  344.830729166667 27.0450501608934  338.225520833333 41.6325951164111  C 340.427256944444 44.6017414347908  342.369965277778 47.9581677077418  344.053645833333 51.7018739352641  Z " fill-rule="nonzero" fill="#000000" stroke="none" fill-opacity="0.996078431372549" transform="matrix(1 0 0 1 164 1497 )" />
  </g>
</svg>