<?xml version="1.0" encoding="utf-8"?>
<svg version="1.1" xmlns:xlink="http://www.w3.org/1999/xlink" width="41px" height="41px" xmlns="http://www.w3.org/2000/svg">
  <g transform="matrix(1 0 0 1 -1809 -14 )">
    <path d="M 23.2493489583333 28.0006510416667  C 23.4095052083333 28.1608072916667  23.4895833333333 28.3654513888889  23.4895833333333 28.6145833333333  L 23.4895833333333 32.8854166666667  C 23.4895833333333 33.1345486111111  23.4095052083333 33.3391927083333  23.2493489583333 33.4993489583333  C 23.0891927083333 33.6595052083333  22.8845486111111 33.7395833333333  22.6354166666667 33.7395833333333  L 18.3645833333333 33.7395833333333  C 18.1154513888889 33.7395833333333  17.9108072916667 33.6595052083333  17.7506510416667 33.4993489583333  C 17.5904947916667 33.3391927083333  17.5104166666667 33.1345486111111  17.5104166666667 32.8854166666667  L 17.5104166666667 28.6145833333333  C 17.5104166666667 28.3654513888889  17.5904947916667 28.1608072916667  17.7506510416667 28.0006510416667  C 17.9108072916667 27.8404947916667  18.1154513888889 27.7604166666667  18.3645833333333 27.7604166666667  L 22.6354166666667 27.7604166666667  C 22.8845486111111 27.7604166666667  23.0891927083333 27.8404947916667  23.2493489583333 28.0006510416667  Z M 27.4000651041667 9.6494140625  C 29.3486328125 11.2420789930556  30.3229166666667 13.1506076388889  30.3229166666667 15.375  C 30.3229166666667 16.2647569444444  30.189453125 17.0655381944444  29.9225260416667 17.77734375  C 29.6555989583333 18.4891493055556  29.2507595486111 19.1030815972222  28.7080078125 19.619140625  C 28.1652560763889 20.1351996527778  27.7025824652778 20.5266927083333  27.3199869791667 20.7936197916667  C 26.9373914930556 21.060546875  26.4079861111111 21.380859375  25.7317708333333 21.7545572916667  C 25.1623263888889 22.0748697916667  24.7485894097222 22.3240017361111  24.4905598958333 22.501953125  C 24.2325303819444 22.6799045138889  24.0011935763889 22.8934461805556  23.7965494791667 23.142578125  C 23.5919053819444 23.3917100694444  23.4895833333333 23.6497395833333  23.4895833333333 23.9166666666667  L 23.4895833333333 24.7708333333333  C 23.4895833333333 25.0199652777778  23.4095052083333 25.224609375  23.2493489583333 25.384765625  C 23.0891927083333 25.544921875  22.8845486111111 25.625  22.6354166666667 25.625  L 18.3645833333333 25.625  C 18.1154513888889 25.625  17.9108072916667 25.544921875  17.7506510416667 25.384765625  C 17.5904947916667 25.224609375  17.5104166666667 25.0199652777778  17.5104166666667 24.7708333333333  L 17.5104166666667 22.9557291666667  C 17.5104166666667 22.3328993055556  17.6038411458333 21.7590060763889  17.7906901041667 21.2340494791667  C 17.9775390625 20.7090928819444  18.1910807291667 20.2864583333333  18.4313151041667 19.9661458333333  C 18.6715494791667 19.6458333333333  19.0185546875 19.3299696180556  19.4723307291667 19.0185546875  C 19.9261067708333 18.7071397569444  20.2909071180556 18.4802517361111  20.5667317708333 18.337890625  C 20.8425564236111 18.1955295138889  21.2384982638889 18.0086805555556  21.7545572916667 17.77734375  C 22.6976996527778 17.3324652777778  23.3650173611111 16.9498697916667  23.7565104166667 16.6295572916667  C 24.1480034722222 16.3092447916667  24.34375 15.8732638888889  24.34375 15.3216145833333  C 24.34375 14.57421875  23.9567057291667 13.9380425347222  23.1826171875 13.4130859375  C 22.4085286458333 12.8881293402778  21.5588107638889 12.6256510416667  20.6334635416667 12.6256510416667  C 19.6369357638889 12.6256510416667  18.7916666666667 12.8658854166667  18.09765625 13.3463541666667  C 17.5815972222222 13.7022569444444  16.8697916666667 14.4407552083333  15.9622395833333 15.5618489583333  C 15.8020833333333 15.775390625  15.5796440972222 15.8821614583333  15.294921875 15.8821614583333  C 15.0991753472222 15.8821614583333  14.9301215277778 15.8287760416667  14.7877604166667 15.7220052083333  L 11.9049479166667 13.533203125  C 11.7269965277778 13.4086371527778  11.6202256944444 13.2306857638889  11.5846354166667 12.9993489583333  C 11.5490451388889 12.7680121527778  11.5935329861111 12.5633680555556  11.7180989583333 12.3854166666667  C 13.8891059027778 8.96875  16.9943576388889 7.26041666666667  21.0338541666667 7.26041666666667  C 23.3294270833333 7.26041666666667  25.4514973958333 8.05674913194444  27.4000651041667 9.6494140625  Z M 27.1331380208333 4.77799479166667  C 25.0244140625 3.87044270833333  22.8133680555556 3.41666666666667  20.5 3.41666666666667  C 18.1866319444444 3.41666666666667  15.9755859375 3.87044270833333  13.8668619791667 4.77799479166667  C 11.7581380208333 5.685546875  9.94303385416667 6.90006510416667  8.42154947916667 8.42154947916667  C 6.90006510416667 9.94303385416667  5.685546875 11.7581380208333  4.77799479166667 13.8668619791667  C 3.87044270833333 15.9755859375  3.41666666666667 18.1866319444444  3.41666666666667 20.5  C 3.41666666666667 22.8133680555556  3.87044270833333 25.0244140625  4.77799479166667 27.1331380208333  C 5.685546875 29.2418619791667  6.90006510416667 31.0569661458333  8.42154947916667 32.5784505208333  C 9.94303385416667 34.0999348958333  11.7581380208333 35.314453125  13.8668619791667 36.2220052083333  C 15.9755859375 37.1295572916667  18.1866319444444 37.5833333333333  20.5 37.5833333333333  C 22.8133680555556 37.5833333333333  25.0244140625 37.1295572916667  27.1331380208333 36.2220052083333  C 29.2418619791667 35.314453125  31.0569661458333 34.0999348958333  32.5784505208333 32.5784505208333  C 34.0999348958333 31.0569661458333  35.314453125 29.2418619791667  36.2220052083333 27.1331380208333  C 37.1295572916667 25.0244140625  37.5833333333333 22.8133680555556  37.5833333333333 20.5  C 37.5833333333333 18.1866319444444  37.1295572916667 15.9755859375  36.2220052083333 13.8668619791667  C 35.314453125 11.7581380208333  34.0999348958333 9.94303385416667  32.5784505208333 8.42154947916667  C 31.0569661458333 6.90006510416667  29.2418619791667 5.685546875  27.1331380208333 4.77799479166667  Z M 38.2506510416667 10.2099609375  C 40.0835503472222 13.3508029513889  41 16.7808159722222  41 20.5  C 41 24.2191840277778  40.0835503472222 27.6491970486111  38.2506510416667 30.7900390625  C 36.4177517361111 33.9308810763889  33.9308810763889 36.4177517361111  30.7900390625 38.2506510416667  C 27.6491970486111 40.0835503472222  24.2191840277778 41  20.5 41  C 16.7808159722222 41  13.3508029513889 40.0835503472222  10.2099609375 38.2506510416667  C 7.06911892361111 36.4177517361111  4.58224826388889 33.9308810763889  2.74934895833333 30.7900390625  C 0.916449652777778 27.6491970486111  0 24.2191840277778  0 20.5  C 0 16.7808159722222  0.916449652777778 13.3508029513889  2.74934895833333 10.2099609375  C 4.58224826388889 7.06911892361111  7.06911892361111 4.58224826388888  10.2099609375 2.74934895833333  C 13.3508029513889 0.916449652777774  16.7808159722222 0  20.5 0  C 24.2191840277778 0  27.6491970486111 0.916449652777774  30.7900390625 2.74934895833333  C 33.9308810763889 4.58224826388888  36.4177517361111 7.06911892361111  38.2506510416667 10.2099609375  Z " fill-rule="nonzero" fill="#000000" stroke="none" transform="matrix(1 0 0 1 1809 14 )" />
  </g>
</svg>