<?xml version="1.0" encoding="utf-8"?>
<svg version="1.1" xmlns:xlink="http://www.w3.org/1999/xlink" width="110px" height="169px" xmlns="http://www.w3.org/2000/svg">
  <g transform="matrix(1 0 0 1 -110 -767 )">
    <path d="M 106.371527777778 3.1357421875  C 108.790509259259 5.22623697916664  110 7.70182291666664  110 10.5625  L 110 158.4375  C 110 161.298177083333  108.790509259259 163.773763020833  106.371527777778 165.8642578125  C 103.952546296296 167.954752604167  101.087962962963 169  97.7777777777778 169  C 94.4675925925926 169  91.6030092592593 167.954752604167  89.1840277777778 165.8642578125  L 3.62847222222222 91.9267578125  C 1.20949074074074 89.8362630208333  0 87.3606770833333  0 84.5  C 0 81.6393229166667  1.20949074074074 79.1637369791667  3.62847222222222 77.0732421875  L 89.1840277777778 3.1357421875  C 91.6030092592593 1.04524739583332  94.4675925925926 0  97.7777777777778 0  C 101.087962962963 0  103.952546296296 1.04524739583332  106.371527777778 3.1357421875  Z " fill-rule="nonzero" fill="#000000" stroke="none" transform="matrix(1 0 0 1 110 767 )" />
  </g>
</svg>