<?xml version="1.0" encoding="utf-8"?>
<svg version="1.1" xmlns:xlink="http://www.w3.org/1999/xlink" width="110px" height="169px" xmlns="http://www.w3.org/2000/svg">
  <g transform="matrix(1 0 0 1 -1419 -788 )">
    <path d="M 3.62847222222223 3.1357421875  C 1.20949074074073 5.22623697916664  0 7.70182291666664  0 10.5625  L 0 158.4375  C 0 161.298177083333  1.20949074074073 163.773763020833  3.62847222222223 165.8642578125  C 6.04745370370369 167.954752604167  8.91203703703703 169  12.2222222222222 169  C 15.5324074074074 169  18.3969907407407 167.954752604167  20.8159722222222 165.8642578125  L 106.371527777778 91.9267578125  C 108.790509259259 89.8362630208333  110 87.3606770833333  110 84.5  C 110 81.6393229166667  108.790509259259 79.1637369791667  106.371527777778 77.0732421875  L 20.8159722222222 3.1357421875  C 18.3969907407407 1.04524739583332  15.5324074074074 0  12.2222222222222 0  C 8.91203703703703 0  6.04745370370369 1.04524739583332  3.62847222222223 3.1357421875  Z " fill-rule="nonzero" fill="#000000" stroke="none" transform="matrix(1 0 0 1 1419 788 )" />
  </g>
</svg>